<?xml version="1.0" encoding="UTF-8"?>
<svg id="Layer_1" data-name="Layer 1" xmlns="http://www.w3.org/2000/svg" version="1.1" viewBox="0 0 512 512">
  <defs>
    <style>
      .cls-1 {
        fill: #fff;
        stroke-width: 0px;
      }
    </style>
  </defs>
  <path class="cls-1" d="M256,0c-53,0-96,43-96,96v160c0,53,43,96,96,96s96-43,96-96V96c0-53-43-96-96-96ZM128,216c0-13.3-10.7-24-24-24s-24,10.7-24,24v40c0,89.1,66.2,162.7,152,174.4v33.6h-48c-13.3,0-24,10.7-24,24s10.7,24,24,24h144c13.3,0,24-10.7,24-24s-10.7-24-24-24h-48v-33.6c85.8-11.7,152-85.3,152-174.4v-40c0-13.3-10.7-24-24-24s-24,10.7-24,24v40c0,70.7-57.3,128-128,128s-128-57.3-128-128v-40Z"/>
</svg>