<?xml version="1.0" encoding="UTF-8"?>
<svg id="Layer_1" data-name="Layer 1" xmlns="http://www.w3.org/2000/svg" baseProfile="tiny" version="1.2" viewBox="0 0 275 275">
  <path d="M223.8,248.6v-12.2c-7.6,0-14.8,0-22.1,0-16.4,0-27-10.6-27-26.8,0-15.2,0-30.3,0-45.5,0-16.2,10.4-26.5,26.6-26.6,7.3,0,14.6,0,22.6,0,0-10,.3-19.6,0-29.2-1.6-39.5-30.8-73.2-69.7-80.8-38.1-7.5-76.4,12.3-93.6,47.7-9.5,19.7-10.4,40.3-9.2,62.2,7.7,0,15.3-.4,22.9.1,4.7.3,9.7,1.3,13.8,3.5,8.2,4.3,12.1,11.9,12.3,21,.3,16.5.3,33,0,49.5-.2,14.1-11.3,24.7-25.5,24.8-10.3.1-20.7.7-30.1-5.1-11.6-7.2-18.2-17.5-18.3-31.3-.2-29-.4-58,0-87C27.3,62.1,62,17.2,111.2,4.9c50.6-12.6,103.1,11.8,126.4,59.3,7.6,15.5,11.1,32,11,49.3-.1,40.3,0,80.7,0,121,0,23.2-15.7,38.9-38.9,38.9-19.2,0-38.3,0-57.5,0-8.6,0-14.5-5-14.5-12.4,0-7.2,5.9-12.4,14.6-12.4,21.7,0,43.3,0,65,0,2,0,4,0,6.5,0Z" fill="#fff" stroke-width="0"/>
</svg>