<?xml version="1.0" encoding="UTF-8"?>
<svg id="Layer_1" data-name="Layer 1"
	xmlns="http://www.w3.org/2000/svg" version="1.1" viewBox="0 0 144 144">
	<defs>
		<style>
      .cls-1 {
        fill: #000;
      }
      .cls-1, .cls-2 {
        stroke-width: 0px;
      }
      .cls-2 {
        fill: #fff;
      }
		</style>
	</defs>
	<rect class="cls-1" x=".5" y=".5" width="143" height="143"/>
	<path class="cls-1" d="M143,1v142H1V1h142M144,0H0v144h144V0h0Z"/>
	<path class="cls-2" d="M72,15.9c-11.7,0-21.2,9.5-21.2,21.2v35.4c0,11.7,9.5,21.2,21.2,21.2s21.2-9.5,21.2-21.2v-35.4c0-11.7-9.5-21.2-21.2-21.2ZM43.7,63.7c0-2.9-2.4-5.3-5.3-5.3s-5.3,2.4-5.3,5.3v8.8c0,19.7,14.6,36,33.6,38.5v7.4h-10.6c-2.9,0-5.3,2.4-5.3,5.3s2.4,5.3,5.3,5.3h31.8c2.9,0,5.3-2.4,5.3-5.3s-2.4-5.3-5.3-5.3h-10.6v-7.4c19-2.6,33.6-18.8,33.6-38.5v-8.8c0-2.9-2.4-5.3-5.3-5.3s-5.3,2.4-5.3,5.3v8.8c0,15.6-12.7,28.3-28.3,28.3s-28.3-12.7-28.3-28.3v-8.8Z"/>
</svg>