<?xml version="1.0" encoding="UTF-8"?>
<svg id="Layer_1" xmlns="http://www.w3.org/2000/svg" version="1.1" viewBox="0 0 144 144">
  <!-- Generator: Adobe Illustrator 29.1.0, SVG Export Plug-In . SVG Version: 2.1.0 Build 142)  -->
  <defs>
    <style>
      .icon {
				{{#if (eq state "notConnected")}}
						fill: grey;
				{{else if (eq state "muted")}}
						fill: #a71d2a;
				{{else}}
	        	fill: #FFFFFF;
				{{/if}}
      }
    </style>
  </defs>
	<path class="icon" d="M120.1,21.7c14.6,11.9,23.9,30,23.9,50.3s-9.3,38.4-23.9,50.3c-2.3,1.9-5.7,1.5-7.6-.8s-1.5-5.7.8-7.6c12.2-9.9,20-25,20-41.9s-7.8-32-20-41.9c-2.3-1.9-2.7-5.3-.8-7.6s5.3-2.7,7.6-.8h0ZM106.4,38.5c9.7,7.9,16,20,16,33.5s-6.2,25.6-16,33.5c-2.3,1.9-5.7,1.5-7.6-.8s-1.5-5.7.8-7.6c7.3-5.9,12-15,12-25.1s-4.7-19.2-12-25.2c-2.3-1.9-2.7-5.3-.8-7.6s5.3-2.7,7.6-.8h0ZM92.8,55.2c4.8,4,8,10,8,16.8s-3.1,12.8-8,16.8c-2.3,1.9-5.7,1.5-7.6-.8s-1.5-5.7.8-7.6c2.4-2,4-5,4-8.4s-1.6-6.4-4-8.4c-2.3-1.9-2.7-5.3-.8-7.6s5.3-2.7,7.6-.8h0ZM67.7,22.2c2.6,1.2,4.3,3.7,4.3,6.6v86.4c0,2.8-1.7,5.4-4.3,6.6s-5.6.7-7.7-1.2l-30.4-27h-15.3C6.5,93.6,0,87.1,0,79.2v-14.4C0,56.9,6.5,50.4,14.4,50.4h15.3l30.4-27c2.1-1.9,5.2-2.3,7.7-1.2h0Z"/>
</svg>