<?xml version="1.0" encoding="UTF-8"?>
<svg id="Layer_1" xmlns="http://www.w3.org/2000/svg" version="1.1" viewBox="0 0 640 512">
  <!-- Generator: Adobe Illustrator 29.1.0, SVG Export Plug-In . SVG Version: 2.1.0 Build 142)  -->
  <defs>
    <style>
      .st0 {
        fill: #fff;
      }
    </style>
  </defs>
  <path class="st0" d="M533.6,32.5c64.9,52.7,106.4,133.3,106.4,223.5s-41.5,170.7-106.4,223.5c-10.3,8.4-25.4,6.8-33.8-3.5s-6.8-25.4,3.5-33.8c54.2-44,88.7-111,88.7-186.2s-34.5-142.2-88.7-186.3c-10.3-8.4-11.8-23.5-3.5-33.8s23.5-11.8,33.8-3.5h0ZM473.1,107c43.2,35.2,70.9,88.9,70.9,149s-27.7,113.8-70.9,149c-10.3,8.4-25.4,6.8-33.8-3.5s-6.8-25.4,3.5-33.8c32.5-26.4,53.2-66.6,53.2-111.7s-20.7-85.3-53.2-111.8c-10.3-8.4-11.8-23.5-3.5-33.8s23.5-11.8,33.8-3.5h0ZM412.6,181.5c21.5,17.6,35.4,44.4,35.4,74.5s-13.9,56.9-35.4,74.5c-10.3,8.4-25.4,6.8-33.8-3.5s-6.8-25.4,3.5-33.8c10.8-8.8,17.7-22.2,17.7-37.2s-6.9-28.4-17.7-37.3c-10.3-8.4-11.8-23.5-3.5-33.8s23.5-11.8,33.8-3.5h0ZM301.1,34.8c11.5,5.2,18.9,16.6,18.9,29.2v384c0,12.6-7.4,24-18.9,29.2s-25,3.1-34.4-5.3l-134.9-119.9h-67.8c-35.3,0-64-28.7-64-64v-64c0-35.3,28.7-64,64-64h67.8l134.9-119.9c9.4-8.4,22.9-10.4,34.4-5.3Z"/>
</svg>