<?xml version="1.0" encoding="UTF-8"?>
<svg id="Layer_1" data-name="Layer 1" xmlns="http://www.w3.org/2000/svg" version="1.1" viewBox="0 0 512 512">
  <defs>
    <style>
      .cls-1 {
        fill: #fff;
        stroke-width: 0px;
      }
    </style>
  </defs>
  <path class="cls-1" d="M256,80c-106.1,0-193.6,79.4-206.4,182,9.4-3.8,19.6-6,30.4-6,26.5,0,48,21.5,48,48v128c0,26.5-21.5,48-48,48-44.2,0-80-35.8-80-80v-112C0,146.6,114.6,32,256,32s256,114.6,256,256v112c0,44.2-35.8,80-80,80s-48-21.5-48-48v-128c0-26.5,21.5-48,48-48s21,2.1,30.4,6c-12.8-102.6-100.3-182-206.4-182Z"/>
</svg>