<svg width="146" height="40" viewBox="0 0 146 40" fill="none" xmlns="http://www.w3.org/2000/svg">
<path d="M8 0.4H138C142.197 0.4 145.6 3.80264 145.6 8V32C145.6 36.1974 142.197 39.6 138 39.6H8C3.80264 39.6 0.4 36.1974 0.4 32V8C0.4 3.80264 3.80264 0.4 8 0.4Z" fill="black"/>
<path d="M8 0.4H138C142.197 0.4 145.6 3.80264 145.6 8V32C145.6 36.1974 142.197 39.6 138 39.6H8C3.80264 39.6 0.4 36.1974 0.4 32V8C0.4 3.80264 3.80264 0.4 8 0.4Z" stroke="#A6A6A6" stroke-width="0.8"/>
<path d="M14.6753 12.0156L14.6878 12.025L19.4461 14.7593C19.2125 16.0645 18.5281 17.2569 17.5148 18.1192C16.4852 18.9954 15.1738 19.4783 13.8217 19.4783C12.2949 19.4783 10.8595 18.8814 9.77915 17.7973C8.69936 16.7133 8.10437 15.2716 8.10437 13.7391C8.10437 12.2067 8.69936 10.765 9.77905 9.68094C10.8587 8.59687 12.2941 8 13.8216 8C14.9883 8 16.1099 8.35071 17.0657 9.01332C17.9995 9.6609 18.714 10.5608 19.133 11.6161C19.1862 11.7513 19.2357 11.8904 19.2789 12.03L18.2624 12.6213C18.2274 12.481 18.1854 12.3413 18.1372 12.2054C17.4896 10.3736 15.7548 9.1423 13.8216 9.1423C11.2965 9.1423 9.24228 11.2046 9.24228 13.7391C9.24228 16.2736 11.2965 18.336 13.8216 18.336C14.8029 18.336 15.7387 18.0278 16.5284 17.4442C17.3018 16.8724 17.8691 16.0889 18.1691 15.179L18.1723 15.159L12.6228 11.9719V15.4277L14.5361 14.3211L15.5212 14.886L12.6535 16.5449L11.6396 15.965V11.4408L12.6523 10.8552L14.6758 12.0162L14.6752 12.0156H14.6753Z" fill="white"/>
<path d="M32 17.3913C32 18.5439 31.0657 19.4783 29.913 19.4783C29.4896 19.4783 29.0956 19.3522 28.7666 19.1355C28.4376 18.9187 28.1735 18.6113 28.0099 18.2489L26.4988 14.9006C26.4579 14.8101 26.3669 14.7469 26.261 14.7469C26.1551 14.7469 26.064 14.8102 26.0232 14.9008L24.512 18.2489C24.1849 18.9738 23.4558 19.4783 22.6088 19.4783C21.4563 19.4783 20.5218 18.5439 20.5218 17.3913C20.5218 16.9679 20.648 16.5738 20.8647 16.2448C21.0815 15.9158 21.3889 15.6518 21.7513 15.4882L25.0996 13.977C25.1901 13.9361 25.2532 13.845 25.2532 13.7391C25.2532 13.6332 25.19 13.5421 25.0994 13.5013L21.7512 11.9902C21.0263 11.663 20.5217 10.9339 20.5217 10.087C20.5217 8.93443 21.4562 8 22.6087 8C23.0322 8 23.4263 8.12616 23.7553 8.34289C24.0843 8.55962 24.3483 8.86692 24.5119 9.22943L26.0231 12.5777C26.064 12.6683 26.1551 12.7313 26.2609 12.7313C26.3667 12.7313 26.458 12.6682 26.4988 12.5775L28.0099 9.22943C28.3371 8.50452 29.0661 8 29.913 8C31.0657 8 32 8.93443 32 10.087C32 10.5104 31.8738 10.9044 31.6571 11.2335C31.4404 11.5625 31.1331 11.8266 30.7707 11.9902L27.4226 13.5013C27.3319 13.5421 27.2687 13.6332 27.2687 13.7391C27.2687 13.8581 27.3446 13.9419 27.4224 13.977L30.7707 15.4882C31.4955 15.8153 32 16.5444 32 17.3913V17.3913Z" fill="url(#paint0_linear_1_2497)"/>
<path d="M9.30445 21.0435C8.58403 21.0435 8.0001 21.6274 8.0001 22.3478C8.0001 23.0682 8.58403 23.6522 9.30445 23.6522H15.8701L8.94894 28.1634C8.37763 28.5358 8 29.1803 8 29.913C8 31.0656 8.93433 32 10.087 32C10.8197 32 11.4641 31.6222 11.8365 31.051L16.3479 24.13V30.6956C16.3479 31.416 16.9319 32 17.6523 32C18.3727 32 18.9566 31.416 18.9566 30.6956V21.0435H9.30445Z" fill="url(#paint1_linear_1_2497)"/>
<path d="M26.5217 20.5217C23.4962 20.5217 21.0435 22.9744 21.0435 26V31.4783H26.5217C29.5473 31.4783 32 29.0256 32 26C32 22.9744 29.5473 20.5217 26.5217 20.5217Z" fill="url(#paint2_linear_1_2497)"/>
<path d="M44.709 15.7021C43.7227 15.9658 42.8503 16.0977 42.0918 16.0977C40.9525 16.0977 40.0654 15.764 39.4307 15.0967C38.7959 14.4261 38.4785 13.5212 38.4785 12.3818C38.4785 11.8447 38.5566 11.3483 38.7129 10.8926C38.8691 10.4336 39.0921 10.0348 39.3818 9.69629C39.6715 9.35775 40.0394 9.09245 40.4854 8.90039C40.9313 8.70833 41.4294 8.6123 41.9795 8.6123C42.3408 8.6123 42.6729 8.65462 42.9756 8.73926C43.2816 8.82064 43.5566 8.94596 43.8008 9.11523C44.0482 9.28125 44.2484 9.50586 44.4014 9.78906C44.5544 10.069 44.6471 10.3962 44.6797 10.7705H43.4102C43.3516 10.3669 43.1921 10.0641 42.9316 9.8623C42.6712 9.66048 42.3343 9.55957 41.9209 9.55957C41.6214 9.55957 41.3496 9.61328 41.1055 9.7207C40.8646 9.82487 40.6628 9.96647 40.5 10.1455C40.3405 10.3213 40.2054 10.5296 40.0947 10.7705C39.9873 11.0114 39.9092 11.262 39.8604 11.5225C39.8148 11.7796 39.792 12.0482 39.792 12.3281C39.792 12.6341 39.8197 12.9255 39.875 13.2021C39.9303 13.4756 40.0182 13.7344 40.1387 13.9785C40.2624 14.2227 40.4137 14.4326 40.5928 14.6084C40.7718 14.7842 40.9932 14.9242 41.2568 15.0283C41.5205 15.1292 41.8151 15.1797 42.1406 15.1797C42.6257 15.1797 43.0846 15.1162 43.5176 14.9893V13.0605H41.8818V12.1719H44.709V15.7021ZM50.71 13.71H47.0381V13.7881C47.0381 14.2373 47.1536 14.6149 47.3848 14.9209C47.6191 15.2269 47.9544 15.3799 48.3906 15.3799C48.7161 15.3799 48.9831 15.2887 49.1914 15.1064C49.403 14.9242 49.5299 14.6686 49.5723 14.3398H50.6904C50.5993 14.9355 50.3405 15.3799 49.9141 15.6729C49.4909 15.9658 48.9701 16.1123 48.3516 16.1123C47.5605 16.1123 46.9535 15.8844 46.5303 15.4287C46.1104 14.9697 45.9004 14.3464 45.9004 13.5586C45.9004 12.7383 46.1152 12.0807 46.5449 11.5859C46.9746 11.0879 47.5964 10.8389 48.4102 10.8389C48.7617 10.8389 49.071 10.8893 49.3379 10.9902C49.6081 11.0879 49.8278 11.223 49.9971 11.3955C50.1696 11.5648 50.3096 11.7747 50.417 12.0254C50.5244 12.2728 50.5993 12.5332 50.6416 12.8066C50.6872 13.0801 50.71 13.3812 50.71 13.71ZM49.582 13.002C49.582 12.7415 49.5413 12.5072 49.46 12.2988C49.3818 12.0905 49.25 11.9196 49.0645 11.7861C48.8822 11.6494 48.6576 11.5811 48.3906 11.5811C47.9967 11.5811 47.6875 11.7161 47.4629 11.9863C47.2383 12.2533 47.1081 12.5918 47.0723 13.002H49.582ZM54.543 15.9902C54.1654 16.0358 53.8594 16.0586 53.625 16.0586C53.1497 16.0586 52.7949 15.9658 52.5605 15.7803C52.3294 15.5947 52.2139 15.2708 52.2139 14.8086V11.7422H51.2471V10.9512H52.2139V10.0381L53.376 9.56934V10.9512H54.5234V11.7422H53.376V14.3789C53.376 14.5124 53.3792 14.6182 53.3857 14.6963C53.3923 14.7712 53.4085 14.8477 53.4346 14.9258C53.4606 15.0007 53.498 15.0576 53.5469 15.0967C53.5957 15.1325 53.6624 15.1618 53.7471 15.1846C53.8317 15.2074 53.9375 15.2188 54.0645 15.2188C54.1816 15.2188 54.3411 15.2025 54.543 15.1699V15.9902ZM59.7432 9.79883H58.5078V8.76855H59.7432V9.79883ZM59.7041 16H58.5469V10.9512H59.7041V16ZM63.8887 15.9902C63.5111 16.0358 63.2051 16.0586 62.9707 16.0586C62.4954 16.0586 62.1406 15.9658 61.9062 15.7803C61.6751 15.5947 61.5596 15.2708 61.5596 14.8086V11.7422H60.5928V10.9512H61.5596V10.0381L62.7217 9.56934V10.9512H63.8691V11.7422H62.7217V14.3789C62.7217 14.5124 62.7249 14.6182 62.7314 14.6963C62.738 14.7712 62.7542 14.8477 62.7803 14.9258C62.8063 15.0007 62.8438 15.0576 62.8926 15.0967C62.9414 15.1325 63.0081 15.1618 63.0928 15.1846C63.1774 15.2074 63.2832 15.2188 63.4102 15.2188C63.5273 15.2188 63.6868 15.2025 63.8887 15.1699V15.9902ZM72.751 13.4512C72.751 14.2454 72.515 14.8883 72.043 15.3799C71.571 15.8682 70.9362 16.1123 70.1387 16.1123C69.3281 16.1123 68.6901 15.8714 68.2246 15.3896C67.7624 14.9079 67.5312 14.2617 67.5312 13.4512C67.5312 12.6536 67.7689 12.0173 68.2441 11.542C68.7227 11.0667 69.3623 10.8291 70.1631 10.8291C70.9736 10.8291 71.6068 11.0651 72.0625 11.5371C72.5215 12.0059 72.751 12.6439 72.751 13.4512ZM71.54 13.4609C71.54 13.2233 71.5156 12.9987 71.4668 12.7871C71.418 12.5755 71.3415 12.3786 71.2373 12.1963C71.1331 12.0107 70.9867 11.8643 70.7979 11.7568C70.609 11.6462 70.3893 11.5908 70.1387 11.5908C69.888 11.5908 69.6683 11.6462 69.4795 11.7568C69.2939 11.8643 69.1491 12.0107 69.0449 12.1963C68.9408 12.3786 68.8643 12.5755 68.8154 12.7871C68.7666 12.9987 68.7422 13.2233 68.7422 13.4609C68.7422 13.6465 68.7568 13.8271 68.7861 14.0029C68.8154 14.1787 68.8643 14.3512 68.9326 14.5205C69.001 14.6898 69.0872 14.8379 69.1914 14.9648C69.2956 15.0885 69.429 15.1895 69.5918 15.2676C69.7546 15.3424 69.9368 15.3799 70.1387 15.3799C70.3861 15.3799 70.6042 15.3229 70.793 15.209C70.9818 15.0918 71.1283 14.9372 71.2324 14.7451C71.3366 14.5531 71.4131 14.3496 71.4619 14.1348C71.514 13.9199 71.54 13.6953 71.54 13.4609ZM78.5371 16H77.375V13.2607C77.375 13.1045 77.3717 12.9727 77.3652 12.8652C77.3587 12.7578 77.3441 12.639 77.3213 12.5088C77.2985 12.3753 77.2627 12.2663 77.2139 12.1816C77.1683 12.0938 77.1081 12.0124 77.0332 11.9375C76.9583 11.8594 76.8607 11.8024 76.7402 11.7666C76.623 11.7275 76.4847 11.708 76.3252 11.708C76.1201 11.708 75.9395 11.7487 75.7832 11.8301C75.6302 11.9115 75.5098 12.014 75.4219 12.1377C75.3372 12.2581 75.2673 12.4046 75.2119 12.5771C75.1598 12.7497 75.1257 12.9124 75.1094 13.0654C75.0931 13.2184 75.085 13.3828 75.085 13.5586V16H73.9277V12.0693C73.9277 11.9587 73.9261 11.8431 73.9229 11.7227C73.9196 11.599 73.9147 11.4622 73.9082 11.3125C73.9049 11.1595 73.9017 11.0423 73.8984 10.9609H75.0459L75.0654 11.7178C75.277 11.4346 75.5146 11.2262 75.7783 11.0928C76.042 10.9561 76.3545 10.8877 76.7158 10.8877C77.93 10.8877 78.5371 11.529 78.5371 12.8115V16Z" fill="white"/>
<path d="M52.16 31H49.6V26.28C49.6 25.736 49.4987 25.336 49.296 25.08C49.0933 24.824 48.832 24.696 48.512 24.696C48.1707 24.696 47.8347 24.8347 47.504 25.112C47.1733 25.3893 46.9387 25.7467 46.8 26.184V31H44.24V26.28C44.24 25.7253 44.1387 25.3253 43.936 25.08C43.7333 24.824 43.472 24.696 43.152 24.696C42.8213 24.696 42.4907 24.8347 42.16 25.112C41.8293 25.3893 41.5893 25.7467 41.44 26.184V31H38.88V22.6H41.184V24.008C41.4933 23.5067 41.9093 23.1227 42.432 22.856C42.9653 22.5787 43.584 22.44 44.288 22.44C44.9813 22.44 45.5147 22.6053 45.888 22.936C46.2613 23.256 46.5013 23.6347 46.608 24.072C46.928 23.5493 47.3493 23.1493 47.872 22.872C48.4053 22.584 49.0027 22.44 49.664 22.44C50.1973 22.44 50.6293 22.5413 50.96 22.744C51.2907 22.936 51.5413 23.192 51.712 23.512C51.8827 23.832 52 24.1787 52.064 24.552C52.128 24.9147 52.16 25.272 52.16 25.624V31ZM53.3051 28.488C53.3051 27.9333 53.4598 27.448 53.7691 27.032C54.0785 26.616 54.5051 26.2907 55.0491 26.056C55.5931 25.8107 56.2171 25.688 56.9211 25.688C57.2625 25.688 57.5985 25.72 57.9291 25.784C58.2598 25.8373 58.5478 25.9173 58.7931 26.024V25.656C58.7931 25.1973 58.6545 24.8453 58.3771 24.6C58.0998 24.3547 57.6785 24.232 57.1131 24.232C56.6438 24.232 56.2011 24.312 55.7851 24.472C55.3798 24.632 54.9478 24.8613 54.4891 25.16L53.7211 23.528C54.2758 23.1653 54.8518 22.8933 55.4491 22.712C56.0571 22.5307 56.6971 22.44 57.3691 22.44C58.6278 22.44 59.6038 22.744 60.2971 23.352C61.0011 23.9493 61.3531 24.8187 61.3531 25.96V28.152C61.3531 28.408 61.3905 28.5893 61.4651 28.696C61.5505 28.792 61.6945 28.8507 61.8971 28.872V31C61.6838 31.0427 61.4811 31.0747 61.2891 31.096C61.1078 31.1173 60.9478 31.128 60.8091 31.128C60.3291 31.128 59.9611 31.032 59.7051 30.84C59.4598 30.648 59.3051 30.3867 59.2411 30.056L59.1931 29.688C58.8198 30.168 58.3718 30.536 57.8491 30.792C57.3371 31.0373 56.7985 31.16 56.2331 31.16C55.6785 31.16 55.1771 31.0427 54.7291 30.808C54.2918 30.5733 53.9451 30.2533 53.6891 29.848C53.4331 29.4427 53.3051 28.9893 53.3051 28.488ZM58.3931 28.808C58.5105 28.712 58.6065 28.6053 58.6811 28.488C58.7558 28.3707 58.7931 28.2587 58.7931 28.152V27.4C58.5798 27.3147 58.3398 27.2507 58.0731 27.208C57.8171 27.1547 57.5771 27.128 57.3531 27.128C56.8838 27.128 56.4945 27.2347 56.1851 27.448C55.8758 27.6507 55.7211 27.9227 55.7211 28.264C55.7211 28.456 55.7745 28.632 55.8811 28.792C55.9878 28.952 56.1318 29.08 56.3131 29.176C56.5051 29.272 56.7291 29.32 56.9851 29.32C57.2411 29.32 57.4971 29.272 57.7531 29.176C58.0091 29.08 58.2225 28.9573 58.3931 28.808ZM68.5361 24.792C67.9175 24.792 67.3575 24.8933 66.8561 25.096C66.3548 25.288 65.9921 25.576 65.7681 25.96V31H63.2081V22.6H65.5601V24.296C65.8481 23.7307 66.2215 23.288 66.6801 22.968C67.1388 22.648 67.6188 22.4827 68.1201 22.472C68.2375 22.472 68.3228 22.472 68.3761 22.472C68.4401 22.472 68.4935 22.4773 68.5361 22.488V24.792ZM75.2624 31L73.0704 27.64L72.1744 28.552V31H69.6144V19.32H72.1744V26.072L75.0224 22.6H77.7264L74.7024 26.216L77.9824 31H75.2624ZM82.3179 31.16C81.6032 31.16 80.9685 31.048 80.4139 30.824C79.8592 30.5893 79.3845 30.2747 78.9899 29.88C78.6059 29.4853 78.3125 29.032 78.1099 28.52C77.9072 27.9973 77.8059 27.4533 77.8059 26.888C77.8059 26.0773 77.9819 25.3413 78.3339 24.68C78.6965 24.008 79.2139 23.4693 79.8859 23.064C80.5579 22.648 81.3685 22.44 82.3179 22.44C83.2672 22.44 84.0725 22.6427 84.7339 23.048C85.4059 23.4533 85.9179 23.9867 86.2699 24.648C86.6219 25.2987 86.7979 26.008 86.7979 26.776C86.7979 26.9253 86.7872 27.0747 86.7659 27.224C86.7552 27.3627 86.7445 27.4853 86.7339 27.592H80.5259C80.5579 27.9653 80.6592 28.28 80.8299 28.536C81.0112 28.792 81.2405 28.9893 81.5179 29.128C81.7952 29.256 82.0885 29.32 82.3979 29.32C82.7819 29.32 83.1392 29.2293 83.4699 29.048C83.8112 28.8667 84.0459 28.6213 84.1739 28.312L86.3499 28.92C86.1365 29.3573 85.8325 29.7467 85.4379 30.088C85.0539 30.4187 84.5952 30.68 84.0619 30.872C83.5392 31.064 82.9579 31.16 82.3179 31.16ZM80.4619 26.024H84.1099C84.0672 25.672 83.9659 25.368 83.8059 25.112C83.6459 24.8453 83.4325 24.6427 83.1659 24.504C82.8992 24.3547 82.6059 24.28 82.2859 24.28C81.9552 24.28 81.6565 24.3547 81.3899 24.504C81.1339 24.6427 80.9259 24.8453 80.7659 25.112C80.6059 25.368 80.5045 25.672 80.4619 26.024ZM93.3044 30.552C93.0697 30.648 92.8084 30.744 92.5204 30.84C92.243 30.936 91.9497 31.0107 91.6404 31.064C91.331 31.128 91.027 31.16 90.7284 31.16C90.3017 31.16 89.907 31.0907 89.5444 30.952C89.1924 30.8027 88.9097 30.5627 88.6964 30.232C88.4937 29.9013 88.3924 29.464 88.3924 28.92V24.536H87.3204V22.6H88.3924V19.928H90.9524V22.6H92.6644V24.536H90.9524V28.04C90.9524 28.3173 91.0217 28.52 91.1604 28.648C91.299 28.7653 91.475 28.824 91.6884 28.824C91.8697 28.824 92.0617 28.792 92.2644 28.728C92.4777 28.664 92.659 28.5947 92.8084 28.52L93.3044 30.552ZM99.6139 31.16C98.9845 31.16 98.4352 31.0267 97.9659 30.76C97.4965 30.4827 97.1285 30.1093 96.8619 29.64V34.408H94.3019V22.6H96.5259V23.96C96.8352 23.48 97.2245 23.1067 97.6939 22.84C98.1632 22.5733 98.7125 22.44 99.3419 22.44C99.9072 22.44 100.425 22.552 100.894 22.776C101.374 23 101.79 23.3093 102.142 23.704C102.494 24.0987 102.766 24.5573 102.958 25.08C103.15 25.6027 103.246 26.168 103.246 26.776C103.246 27.608 103.091 28.3547 102.782 29.016C102.473 29.6773 102.041 30.2 101.486 30.584C100.942 30.968 100.318 31.16 99.6139 31.16ZM98.7499 29C99.0272 29 99.2779 28.9413 99.5019 28.824C99.7365 28.696 99.9392 28.5307 100.11 28.328C100.281 28.1253 100.409 27.8907 100.494 27.624C100.59 27.3467 100.638 27.0587 100.638 26.76C100.638 26.4507 100.585 26.168 100.478 25.912C100.382 25.656 100.243 25.432 100.062 25.24C99.8805 25.0373 99.6672 24.8827 99.4219 24.776C99.1765 24.6693 98.9099 24.616 98.6219 24.616C98.4512 24.616 98.2752 24.6427 98.0939 24.696C97.9232 24.7493 97.7579 24.8293 97.5979 24.936C97.4485 25.032 97.3099 25.1493 97.1819 25.288C97.0539 25.4267 96.9472 25.5867 96.8619 25.768V27.496C96.9792 27.784 97.1339 28.04 97.3259 28.264C97.5179 28.488 97.7365 28.6693 97.9819 28.808C98.2272 28.936 98.4832 29 98.7499 29ZM104.504 19.32H107.064V28.008C107.064 28.36 107.128 28.6107 107.256 28.76C107.384 28.9093 107.566 28.984 107.8 28.984C107.96 28.984 108.12 28.9627 108.28 28.92C108.451 28.8667 108.6 28.808 108.728 28.744L109.064 30.664C108.744 30.8133 108.376 30.9307 107.96 31.016C107.544 31.1013 107.155 31.144 106.792 31.144C106.067 31.144 105.502 30.952 105.096 30.568C104.702 30.1733 104.504 29.6187 104.504 28.904V19.32ZM109.368 28.488C109.368 27.9333 109.522 27.448 109.832 27.032C110.141 26.616 110.568 26.2907 111.112 26.056C111.656 25.8107 112.28 25.688 112.984 25.688C113.325 25.688 113.661 25.72 113.992 25.784C114.322 25.8373 114.61 25.9173 114.856 26.024V25.656C114.856 25.1973 114.717 24.8453 114.44 24.6C114.162 24.3547 113.741 24.232 113.176 24.232C112.706 24.232 112.264 24.312 111.848 24.472C111.442 24.632 111.01 24.8613 110.552 25.16L109.784 23.528C110.338 23.1653 110.914 22.8933 111.512 22.712C112.12 22.5307 112.76 22.44 113.432 22.44C114.69 22.44 115.666 22.744 116.36 23.352C117.064 23.9493 117.416 24.8187 117.416 25.96V28.152C117.416 28.408 117.453 28.5893 117.528 28.696C117.613 28.792 117.757 28.8507 117.96 28.872V31C117.746 31.0427 117.544 31.0747 117.352 31.096C117.17 31.1173 117.01 31.128 116.872 31.128C116.392 31.128 116.024 31.032 115.768 30.84C115.522 30.648 115.368 30.3867 115.304 30.056L115.256 29.688C114.882 30.168 114.434 30.536 113.912 30.792C113.4 31.0373 112.861 31.16 112.296 31.16C111.741 31.16 111.24 31.0427 110.792 30.808C110.354 30.5733 110.008 30.2533 109.752 29.848C109.496 29.4427 109.368 28.9893 109.368 28.488ZM114.456 28.808C114.573 28.712 114.669 28.6053 114.744 28.488C114.818 28.3707 114.856 28.2587 114.856 28.152V27.4C114.642 27.3147 114.402 27.2507 114.136 27.208C113.88 27.1547 113.64 27.128 113.416 27.128C112.946 27.128 112.557 27.2347 112.248 27.448C111.938 27.6507 111.784 27.9227 111.784 28.264C111.784 28.456 111.837 28.632 111.944 28.792C112.05 28.952 112.194 29.08 112.376 29.176C112.568 29.272 112.792 29.32 113.048 29.32C113.304 29.32 113.56 29.272 113.816 29.176C114.072 29.08 114.285 28.9573 114.456 28.808ZM123.287 31.16C122.572 31.16 121.937 31.0427 121.383 30.808C120.828 30.5733 120.353 30.2533 119.959 29.848C119.575 29.4427 119.281 28.9787 119.079 28.456C118.876 27.9333 118.775 27.3787 118.775 26.792C118.775 26.024 118.951 25.3093 119.303 24.648C119.665 23.9867 120.183 23.4533 120.855 23.048C121.527 22.6427 122.337 22.44 123.287 22.44C124.247 22.44 125.057 22.648 125.719 23.064C126.391 23.4693 126.892 24.0027 127.223 24.664L124.727 25.416C124.567 25.16 124.359 24.9627 124.103 24.824C123.857 24.6853 123.58 24.616 123.271 24.616C122.919 24.616 122.599 24.7067 122.311 24.888C122.033 25.0693 121.809 25.32 121.639 25.64C121.479 25.96 121.399 26.344 121.399 26.792C121.399 27.2293 121.484 27.6133 121.655 27.944C121.825 28.2747 122.049 28.536 122.327 28.728C122.604 28.9093 122.919 29 123.271 29C123.484 29 123.681 28.968 123.863 28.904C124.055 28.8293 124.225 28.728 124.375 28.6C124.535 28.472 124.657 28.328 124.743 28.168L127.239 28.936C127.036 29.3627 126.743 29.7467 126.359 30.088C125.985 30.4187 125.543 30.68 125.031 30.872C124.519 31.064 123.937 31.16 123.287 31.16ZM132.334 31.16C131.619 31.16 130.984 31.048 130.43 30.824C129.875 30.5893 129.4 30.2747 129.006 29.88C128.622 29.4853 128.328 29.032 128.126 28.52C127.923 27.9973 127.822 27.4533 127.822 26.888C127.822 26.0773 127.998 25.3413 128.35 24.68C128.712 24.008 129.23 23.4693 129.902 23.064C130.574 22.648 131.384 22.44 132.334 22.44C133.283 22.44 134.088 22.6427 134.75 23.048C135.422 23.4533 135.934 23.9867 136.286 24.648C136.638 25.2987 136.814 26.008 136.814 26.776C136.814 26.9253 136.803 27.0747 136.782 27.224C136.771 27.3627 136.76 27.4853 136.75 27.592H130.542C130.574 27.9653 130.675 28.28 130.846 28.536C131.027 28.792 131.256 28.9893 131.534 29.128C131.811 29.256 132.104 29.32 132.414 29.32C132.798 29.32 133.155 29.2293 133.486 29.048C133.827 28.8667 134.062 28.6213 134.19 28.312L136.366 28.92C136.152 29.3573 135.848 29.7467 135.454 30.088C135.07 30.4187 134.611 30.68 134.078 30.872C133.555 31.064 132.974 31.16 132.334 31.16ZM130.478 26.024H134.126C134.083 25.672 133.982 25.368 133.822 25.112C133.662 24.8453 133.448 24.6427 133.182 24.504C132.915 24.3547 132.622 24.28 132.302 24.28C131.971 24.28 131.672 24.3547 131.406 24.504C131.15 24.6427 130.942 24.8453 130.782 25.112C130.622 25.368 130.52 25.672 130.478 26.024Z" fill="white"/>
<defs>
<linearGradient id="paint0_linear_1_2497" x1="32" y1="8" x2="20.5217" y2="19.4783" gradientUnits="userSpaceOnUse">
<stop offset="0.2969" stop-color="#4DE36E"/>
<stop offset="1" stop-color="#31AFA7"/>
</linearGradient>
<linearGradient id="paint1_linear_1_2497" x1="18.9566" y1="21.0435" x2="8.0001" y2="32.0001" gradientUnits="userSpaceOnUse">
<stop offset="0.3385" stop-color="#FF60D0"/>
<stop offset="1" stop-color="#A638FE"/>
</linearGradient>
<linearGradient id="paint2_linear_1_2497" x1="32" y1="20.5217" x2="21.0435" y2="31.4783" gradientUnits="userSpaceOnUse">
<stop offset="0.3281" stop-color="#FBDB00"/>
<stop offset="1" stop-color="#FF9959"/>
</linearGradient>
</defs>
</svg>
