<?xml version="1.0" encoding="UTF-8"?>
<svg xmlns="http://www.w3.org/2000/svg" version="1.1" viewBox="0 0 275 275">
  <defs>
    <style>
      .cls-1 {
        fill: #00cfff;
        stroke: #231f20;
        stroke-miterlimit: 10;
      }
    </style>
  </defs>
  <!-- Generator: Adobe Illustrator 28.7.2, SVG Export Plug-In . SVG Version: 1.2.0 Build 154)  -->
  <g>
    <g id="Layer_1">
      <path class="cls-1" d="M223.8,248.6v-12.2h-22.1c-16.4,0-27-10.6-27-26.8v-45.5c0-16.2,10.4-26.5,26.6-26.6h22.6c0-10,.3-19.6,0-29.2-1.6-39.5-30.8-73.2-69.7-80.8-38.1-7.5-76.4,12.3-93.6,47.7-9.5,19.7-10.4,40.3-9.2,62.2,7.7,0,15.3-.4,22.9.1,4.7.3,9.7,1.3,13.8,3.5,8.2,4.3,12.1,11.9,12.3,21,.3,16.5.3,33,0,49.5-.2,14.1-11.3,24.7-25.5,24.8-10.3.1-20.7.7-30.1-5.1-11.6-7.2-18.2-17.5-18.3-31.3-.2-29-.4-58,0-87C27.3,62.1,62,17.2,111.2,4.9c50.6-12.6,103.1,11.8,126.4,59.3,7.6,15.5,11.1,32,11,49.3-.1,40.3,0,80.7,0,121s-15.7,38.9-38.9,38.9h-57.5c-8.6,0-14.5-5-14.5-12.4s5.9-12.4,14.6-12.4h71.5,0Z"/>
    </g>
  </g>
</svg>