<?xml version="1.0" encoding="UTF-8"?>
<svg id="Layer_1" xmlns="http://www.w3.org/2000/svg" version="1.1" viewBox="0 0 576 512">
  <!-- Generator: Adobe Illustrator 29.1.0, SVG Export Plug-In . SVG Version: 2.1.0 Build 142)  -->
  <defs>
    <style>
      .st0 {
        fill: #fff;
      }
    </style>
  </defs>
  <path class="st0" d="M301.1,34.8c11.5,5.2,18.9,16.6,18.9,29.2v384c0,12.6-7.4,24-18.9,29.2s-25,3.1-34.4-5.3l-134.9-119.9h-67.8c-35.3,0-64-28.7-64-64v-64c0-35.3,28.7-64,64-64h67.8l134.9-119.9c9.4-8.4,22.9-10.4,34.4-5.3ZM425,167l55,55,55-55c9.4-9.4,24.6-9.4,33.9,0s9.4,24.6,0,33.9l-55,55,55,55c9.4,9.4,9.4,24.6,0,33.9s-24.6,9.4-33.9,0l-55-55-55,55c-9.4,9.4-24.6,9.4-33.9,0s-9.4-24.6,0-33.9l55-55-55-55c-9.4-9.4-9.4-24.6,0-33.9s24.6-9.4,33.9,0Z"/>
</svg>