<?xml version="1.0" encoding="UTF-8"?>
<svg id="Layer_1" data-name="Layer 1" xmlns="http://www.w3.org/2000/svg" version="1.1" viewBox="0 0 144 144">
  <defs>
    <style>
      .icon {
		{{#if (eq state "unavailable")}}
	        fill: grey;
		{{else if (eq state "notConnected")}}
	        fill: grey;
		{{else}}
        	fill: #FFFFFF;
		{{/if}}
        stroke-width: 0px;
      }
    </style>
  </defs>
	{{#if (eq state "unavailable")}}
		<path class="icon" d="M72.1,9.4c3.9,0,7.7,2.2,9.6,5.5l60.3,102.8c2,3.5,2,7.7,0,11.2-2,3.5-5.7,5.7-9.7,5.7H11.7c-4,0-7.7-2.2-9.7-5.7s-2-7.8,0-11.2L62.4,15c2-3.4,5.7-5.5,9.6-5.5h.1ZM72.1,45.1c-3.8,0-6.7,3-6.7,6.7v31.2c0,3.8,3,6.7,6.7,6.7s6.7-3,6.7-6.7v-31.2c0-3.8-3-6.7-6.7-6.7ZM81,107.6c0-5-4-8.9-8.9-8.9s-8.9,4-8.9,8.9,4,8.9,8.9,8.9,8.9-4,8.9-8.9Z"/>
	{{else if (eq state "muted")}}
		<path class="icon" d="M75.3,16.7c2.9,1.3,4.7,4.2,4.7,7.3v96c0,3.2-1.9,6-4.7,7.3s-6.3.8-8.6-1.3l-33.7-30h-17C7.2,96,0,88.8,0,80v-16C0,55.2,7.2,48,16,48h17l33.7-30c2.4-2.1,5.7-2.6,8.6-1.3h0ZM106.3,49.7l13.8,13.8,13.8-13.8c2.4-2.4,6.2-2.4,8.5,0s2.4,6.2,0,8.5l-13.8,13.8,13.8,13.8c2.4,2.4,2.4,6.2,0,8.5s-6.2,2.4-8.5,0l-13.8-13.8-13.8,13.8c-2.4,2.4-6.2,2.4-8.5,0s-2.4-6.2,0-8.5l13.8-13.8-13.8-13.8c-2.4-2.4-2.4-6.2,0-8.5s6.2-2.4,8.5,0Z"/>
	{{else}}
		<path class="icon" d="M120.1,21.7c14.6,11.9,23.9,30,23.9,50.3s-9.3,38.4-23.9,50.3c-2.3,1.9-5.7,1.5-7.6-.8s-1.5-5.7.8-7.6c12.2-9.9,20-25,20-41.9s-7.8-32-20-41.9c-2.3-1.9-2.7-5.3-.8-7.6s5.3-2.7,7.6-.8h0ZM106.4,38.5c9.7,7.9,16,20,16,33.5s-6.2,25.6-16,33.5c-2.3,1.9-5.7,1.5-7.6-.8s-1.5-5.7.8-7.6c7.3-5.9,12-15,12-25.1s-4.7-19.2-12-25.2c-2.3-1.9-2.7-5.3-.8-7.6s5.3-2.7,7.6-.8h0ZM92.8,55.2c4.8,4,8,10,8,16.8s-3.1,12.8-8,16.8c-2.3,1.9-5.7,1.5-7.6-.8s-1.5-5.7.8-7.6c2.4-2,4-5,4-8.4s-1.6-6.4-4-8.4c-2.3-1.9-2.7-5.3-.8-7.6s5.3-2.7,7.6-.8h0ZM67.7,22.2c2.6,1.2,4.3,3.7,4.3,6.6v86.4c0,2.8-1.7,5.4-4.3,6.6s-5.6.7-7.7-1.2l-30.4-27h-15.3C6.5,93.6,0,87.1,0,79.2v-14.4C0,56.9,6.5,50.4,14.4,50.4h15.3l30.4-27c2.1-1.9,5.2-2.3,7.7-1.2h0Z"/>
	{{/if}}
</svg>