<svg xmlns="http://www.w3.org/2000/svg" version="1.2" width="144" height="144">
<defs>
		<style>
			.background {
				{{#if (eq state "blocking")}}
					fill: yellow;
				{{else if (eq state "activeComms")}}
					fill: #f60;
				{{else if (eq state "listening")}}
					fill: #060;
				{{else if (eq state "notListening")}}
					fill: black;
				{{else if (eq state "unavailable")}}
					fill: black;
				{{else if (eq state "muted")}}
					fill: #a71d2a;
				{{else}}
					fill: black;
				{{/if}}
			}
			.muteIcon {
        fill: #fff;
      }
		</style>
	</defs>
	<rect class="background" width="144" height="144" />
	<path class="muteIcon" display="{{#if isOutputMuted}}inline{{else}}none{{/if}}" d="M72.5,113.4c.5.2.8.7.8,1.2v15.5c0,.5-.3,1-.8,1.2s-1,.1-1.4-.2l-5.5-4.9h-2.7c-1.4,0-2.6-1.2-2.6-2.6v-2.6c0-1.4,1.2-2.6,2.6-2.6h2.7l5.5-4.9c.4-.3.9-.4,1.4-.2h0ZM77.5,118.7l2.2,2.2,2.2-2.2c.4-.4,1-.4,1.4,0s.4,1,0,1.4l-2.2,2.2,2.2,2.2c.4.4.4,1,0,1.4s-1,.4-1.4,0l-2.2-2.2-2.2,2.2c-.4.4-1,.4-1.4,0s-.4-1,0-1.4l2.2-2.2-2.2-2.2c-.4-.4-.4-1,0-1.4s1-.4,1.4,0Z"/>
</svg>